<?xml version="1.0" encoding="utf-8"?>
<!-- Generator: Adobe Illustrator 18.0.0, SVG Export Plug-In . SVG Version: 6.00 Build 0)  -->
<!DOCTYPE svg PUBLIC "-//W3C//DTD SVG 1.1//EN" "http://www.w3.org/Graphics/SVG/1.1/DTD/svg11.dtd">
<svg version="1.1" id="Capa_1" xmlns="http://www.w3.org/2000/svg" xmlns:xlink="http://www.w3.org/1999/xlink" x="0px" y="0px"
	 viewBox="0 0 1920 1080" enable-background="new 0 0 1920 1080" xml:space="preserve">
<g>
	<path fill="#48AFE3" d="M952.4,476.7c-9.7,2.7-15.4,12.9-12.4,22.8c0.4,1.7,49.4,175.5,35.9,561.7c-0.4,10.1,7.6,18.6,17.7,19
		c0.2,0,0.4,0,0.6,0c9.9,0,17.9-7.8,18.4-17.7c13.7-391.9-35.2-565.9-37.3-573.1C972.2,479.5,962.1,474,952.4,476.7z"/>
	<path fill="#48AFE3" d="M1412.7,301.6C1335,118.3,1156.4,0,957.5,0c-65.6,0-129.7,12.9-190.3,38.2c-33.5,13.9-65.4,30.6-94.3,49.6
		c-8.4,5.5-11,16.9-5.5,25.3s16.9,11,25.3,5.5c27.2-17.7,57-33.3,88.4-46.4c56.3-23.6,115.6-35.4,176.3-35.4
		c184.1,0,349.7,109.7,421.5,279.3c29.7,70.5,46,200.4,52.9,271.7c0.8,9.5,8.9,16.5,18.1,16.5c0.6,0,1.3,0,1.9,0
		c10.1-1.1,17.5-9.9,16.5-20C1459.5,494.4,1442.8,372.9,1412.7,301.6z"/>
	<path fill="#48AFE3" d="M618.7,177.8c7.2-7.2,7.2-18.8,0.2-25.9c-7.2-7.2-18.8-7.2-25.9-0.2c-98.5,97-196.6,277.4-104.6,585.8
		c2.3,8,9.7,13.1,17.5,13.1c1.7,0,3.4-0.2,5.3-0.8c9.7-3,15.2-13.1,12.2-22.8C454.8,496.8,487.7,306.7,618.7,177.8z"/>
	<path fill="#48AFE3" d="M971.6,110.1c-56.1-2.1-110.5,7.8-162,29.3c-179.7,74.9-275.1,272.3-222.1,459.2
		c5.3,18.8,10.8,38.6,13.7,58.4c6.5,44.9,7,127.4,7,258.2c0,10.1,8.2,18.4,18.4,18.4s18.4-8.2,18.4-18.4c0-136.5-0.4-216-7.4-263.5
		c-3.2-21.9-9.1-43.2-14.6-63.1C575,419.6,661.3,241.1,823.7,173.4c46.6-19.4,96.2-28.3,146.6-26.6
		c130.1,4.6,277.8,119.4,322.3,250.6c38.6,113.5,38.8,306.7,34,480.9c-0.2,10.1,7.8,18.6,17.7,18.8c9.9-0.2,18.6-7.6,18.8-17.7
		c4.9-177.4,4.4-374.6-36.1-493.6C1277.5,238.8,1117.8,115.4,971.6,110.1z"/>
	<path fill="#48AFE3" d="M957.5,219.6c-19.8,0-39.7,2.1-58.9,6.3c-9.9,2.1-16,12-13.9,21.7c2.1,9.9,11.8,16,21.7,13.9
		c16.7-3.6,33.8-5.5,51-5.5c95.8,0,181.8,57,219.2,145.3c44.5,105,47.5,273.8,37.1,568.1c-0.4,10.1,7.6,18.6,17.7,19
		c0.2,0,0.4,0,0.6,0c9.9,0,17.9-7.8,18.4-17.7c10.8-306.1,7.4-471.4-40.1-583.5C1167.4,285.4,1068,219.6,957.5,219.6z"/>
	<path fill="#48AFE3" d="M821.6,299.1c8.2-5.9,10.3-17.3,4.4-25.5c-5.7-8.2-17.3-10.3-25.5-4.4c-94.3,66.2-135.2,193.4-101.9,316.6
		c0.4,1.3,37.5,136.7,37.5,347.8c0,10.1,8.2,18.4,18.4,18.4s18.4-8.2,18.4-18.4c0-216.2-37.3-352.1-38.8-357.5
		C704.6,467.6,739.8,356.5,821.6,299.1z"/>
	<path fill="#48AFE3" d="M1138.9,878.8c0-10.1-8-18.4-18.1-18.4c0,0,0,0-0.2,0c-10.1,0-18.1,8-18.4,18.1c0,13.7,0.4,34,0.8,55.5
		c0.6,31.6,1.5,67.3,0.6,90.3c-0.4,10.1,7.6,18.6,17.7,19c0.2,0,0.4,0,0.6,0c9.9,0,17.9-7.8,18.4-17.7c0.8-24,0-60.3-0.6-92.4
		C1139.3,911.9,1138.9,892.3,1138.9,878.8z"/>
	<path fill="#48AFE3" d="M957.5,347.8c-19.4,0-38.4,3.8-56.3,11.4c-71.3,29.7-105.9,110.1-80.6,186.9c13.7,41.8,25.5,261.1,25.5,479
		c0,10.1,8.2,18.4,18.4,18.4s18.4-8.2,18.4-18.4c0-196-10.3-439.2-27.2-490.4c-19.2-58.4,6.5-119.4,59.9-141.8
		c13.5-5.7,27.6-8.4,42.2-8.4c44.3,0,84,26.4,101.2,67.1c34.2,80.8,44.3,227.4,46.8,336c0.2,9.9,8.4,17.9,18.4,17.9
		c0.2,0,0.2,0,0.4,0c10.1-0.2,18.1-8.6,17.9-18.8c-2.5-111.8-13.3-263-49.8-349.5C1069.5,382.9,1016.5,347.8,957.5,347.8z"/>
</g>
</svg>
