<?xml version="1.0" encoding="utf-8"?>
<!-- Generator: Adobe Illustrator 18.0.0, SVG Export Plug-In . SVG Version: 6.00 Build 0)  -->
<!DOCTYPE svg PUBLIC "-//W3C//DTD SVG 1.1//EN" "http://www.w3.org/Graphics/SVG/1.1/DTD/svg11.dtd">
<svg version="1.1" id="Layer_1" xmlns="http://www.w3.org/2000/svg" xmlns:xlink="http://www.w3.org/1999/xlink" x="0px" y="0px"
	 viewBox="0 0 1920 1080" enable-background="new 0 0 1920 1080" xml:space="preserve">

	 <style>
	 	.st2{fill:none;stroke:#f05033;stroke-width:9;stroke-miterlimit:10;}

	 	.st2{

	 	stroke-dasharray: 5500;
	 	stroke-dashoffset:0;
	 	-webkit-animation: dasho 1s linear forwards;
	 	animation: dasho 1s linear forwards;
	 	}

	 	@-webkit-keyframes dasho{

	 	from{

	 	stroke-dashoffset:5500;
	 	}
	 	to{

	 	stroke-dashoffset:0;
	 	}
	 	}
	 </style>
<g>

	<path class="st2" d="M960,0C661.8,0,420,241.8,420,540s241.8,540,540,540
		s540-241.8,540-540S1258.2,0,960,0z M1111.3,951.4c-3.1-42.3-6.6-94.6-6.8-115.8c-1.3-16.3-3.1-57.6-42.4-84.1
		c156-13.1,230.2-99.3,235.5-213.2c4.5-64.9-21.3-121.9-67.1-167.9c2.3-49.2-1.5-107.6-4.7-133.2c-35.2-10.1-117.2,33.2-140.1,51.7
		c-48.3-18.8-166.6-25.3-238.5,0c-51-35.8-109-58-140.6-51.8c-29.2,64.7-10.4,125.9-4.7,133.1c-37.6,34.4-90,76.6-75.8,165.2
		c22.8,129.9,114.2,200,261.4,217.1c-31.4,6.4-36.7,29.8-39.3,40c-98.8,40.8-127.1-25.2-139.6-42.4c-41.5-51.3-78.7-36.4-81-35.6
		c-2.2,0.8-3.9,4-3.7,5.6c2.1,11.1,24.7,22.3,25.8,23.2c30.6,22.8,42,64,48.9,75.8c43.9,72.2,146,42.3,146.9,42.9
		c0.1,6.3-0.7,59.4-1.3,100.8c-186.1-50.8-323-220.6-323-422.8c0-242.3,196.4-438.7,438.7-438.7s438.8,196.4,438.8,438.7
		C1398.7,729.1,1278.9,889.7,1111.3,951.4z"/>
</g>
</svg>
