<?xml version="1.0" encoding="utf-8"?>
<!-- Generator: Adobe Illustrator 18.0.0, SVG Export Plug-In . SVG Version: 6.00 Build 0)  -->
<!DOCTYPE svg PUBLIC "-//W3C//DTD SVG 1.1//EN" "http://www.w3.org/Graphics/SVG/1.1/DTD/svg11.dtd">
<svg version="1.1" id="Capa_3" xmlns="http://www.w3.org/2000/svg" xmlns:xlink="http://www.w3.org/1999/xlink" x="0px" y="0px"
	 viewBox="0 0 1920 1080" enable-background="new 0 0 1920 1080" xml:space="preserve">
<g>
	<g>
		<path fill="#FCE2A6" d="M1294.3,749c-4.2,0-8.6-1.5-11.8-4.6l-200.4-187.9c-7-6.5-7.4-17.5-0.8-24.7c6.5-7.2,17.5-7.4,24.7-0.8
			l200.4,187.9c7,6.5,7.4,17.5,0.8,24.7C1303.6,747.1,1299.2,749,1294.3,749z"/>
		<path fill="#FCE2A6" d="M625.5,749c-4.6,0-9.3-1.9-12.7-5.5c-6.5-7-6.3-18.1,0.8-24.7L814,530.9c7-6.5,18.1-6.3,24.7,0.8
			c6.5,7,6.3,18.1-0.8,24.7L637.5,744.4C634.1,747.6,629.9,749,625.5,749z"/>
	</g>
	<path fill="#FCE2A6" d="M1412.9,923.9H507.1c-48.1,0-87.1-39-87.1-87.1V243.2c0-48.1,39-87.1,87.1-87.1h906
		c48.1,0,87.1,39,87.1,87.1v593.6C1500,884.9,1461,923.9,1412.9,923.9z M507.1,190.9c-28.9,0-52.3,23.4-52.3,52.3v593.6
		c0,28.9,23.4,52.3,52.3,52.3h906c28.9,0,52.3-23.4,52.3-52.3V243.2c0-28.9-23.4-52.3-52.3-52.3H507.1z"/>
	<path fill="#FCE2A6" d="M960,627.5c-23.2,0-46.4-7.6-63.9-23l-447.2-390c-7.2-6.3-8-17.3-1.7-24.7c6.3-7.2,17.3-7.8,24.7-1.7
		l447.2,390c22.1,19.4,59.9,19.4,82.1,0l446.6-389.4c7.2-6.3,18.1-5.7,24.7,1.7c6.3,7.4,5.5,18.4-1.7,24.7l-446.8,389.2
		C1006.2,619.7,983.2,627.5,960,627.5z"/>
</g>
</svg>
