<?xml version="1.0" encoding="utf-8"?>
<!-- Generator: Adobe Illustrator 18.0.0, SVG Export Plug-In . SVG Version: 6.00 Build 0)  -->
<!DOCTYPE svg PUBLIC "-//W3C//DTD SVG 1.1//EN" "http://www.w3.org/Graphics/SVG/1.1/DTD/svg11.dtd">
<svg version="1.1" id="Capa_1" xmlns="http://www.w3.org/2000/svg" xmlns:xlink="http://www.w3.org/1999/xlink" x="0px" y="0px"
	 viewBox="0 0 1920 1080" enable-background="new 0 0 1920 1080" xml:space="preserve">
<g>
	<path fill="#E64C3B" d="M987.6,337.3c-9.5,9.5-9.5,25.1,0,34.6s25.1,9.5,34.6,0l20.2-20.2c7.2-7.2,9.3-18.4,4.9-27.6
		c-13.5-28.9-20.2-58.9-20.2-89c0-61.4,26.6-119,71.7-158.8V236c0,8,4,15.6,10.5,20l116,80.4c8.4,5.7,19.4,5.7,27.8,0l116-80.2
		c6.5-4.6,10.5-12,10.5-20V76.4c44.9,39.9,71.7,97.5,71.7,158.8c0,56.7-22.1,109.9-62.2,150s-93.2,62-149.8,62h-0.2
		c-19.4,0-57.8-9.5-70.9-13.1c-8.4-2.3-17.5,0-23.8,6.3l-74.2,74.2c-9.5,9.5-9.5,25.1,0,34.6c4.9,4.9,11,7.2,17.3,7.2
		s12.4-2.3,17.3-7.2l64.3-64.3c17.9,4.4,48.7,11.2,69.8,11.2h0.2c69.6,0,135.2-27.2,184.4-76.4C1473,370.4,1500,305,1500,235.2
		c0-93.9-51-181-132.9-227.2c-7.6-4.2-16.9-4.2-24.3,0.2c-7.6,4.4-12,12.4-12,21.1v194.5l-91.5,63.3l-91.5-63.3V29.3
		c0-8.6-4.6-16.7-12-21.1c-7.6-4.4-16.7-4.4-24.3-0.2c-82.1,46.4-132.9,133.5-132.9,227.4c0,31.6,6.1,63.1,18.1,93.7L987.6,337.3z"
		/>
	<path fill="#E64C3B" d="M922.9,661.7l-339,339c-12.7,12.7-29.7,19.8-47.7,19.8l0,0c-17.9,0-35-7-47.7-19.8
		c-12.7-12.7-19.8-29.7-19.6-47.7c0-17.9,7-34.8,19.8-47.7l291.5-291.5c9.5-9.5,9.5-25.1,0-34.6s-25.1-9.5-34.6,0L454.2,870.8
		c-21.9,21.9-34.2,51-34.2,82.1c0,31,12,60.3,34,82.3c21.9,21.9,51.3,34.2,82.3,34.2l0,0c31,0,60.3-12.2,82.3-34.2l339-339
		c9.5-9.5,9.5-25.1,0-34.6C948,652.2,932.4,652.2,922.9,661.7z"/>
	<path fill="#E64C3B" d="M535.8,923.3c-8,0-15.6,3.2-21.1,8.9c-11.8,11.6-11.8,30.8-0.2,42.6l0,0c5.9,5.9,13.5,8.9,21.3,8.9
		s15.4-3,21.3-8.9c11.6-11.8,11.6-30.8,0-42.4C551.6,926.4,544,923.3,535.8,923.3C536,923.3,536,923.3,535.8,923.3z"/>
	<path fill="#E64C3B" d="M1334.8,799.5c-2.5-2.5-5.5-4.4-8.9-5.7l-70-25.3l-253.1-253.1l40.9-40.9c9.5-9.5,9.5-25.1,0-34.6
		c-7.2-7.2-17.9-9.1-26.8-5.3L633.9,51.7c-23.2-23.2-54-36.1-86.9-36.1c0,0,0,0-0.2,0c-32.7,0-63.5,12.7-86.7,35.9
		c-23.2,23.4-36.1,54.2-36.1,87.1s12.9,63.7,36.1,86.9l382.9,382.9c-3.8,8.9-1.9,19.6,5.3,26.8c9.5,9.5,25.1,9.5,34.6,0l40.9-40.9
		l253.1,253.1l25.3,70c1.3,3.4,3.2,6.3,5.7,8.9l142,142c4.9,4.9,11,7.2,17.3,7.2s12.4-2.3,17.3-7.2l92.4-92.4
		c4.6-4.6,7.2-10.8,7.2-17.3s-2.5-12.7-7.2-17.3L1334.8,799.5z M950.7,497.8C950.7,498,950.7,498,950.7,497.8L876,572.5L494.7,190.9
		c-13.9-13.9-21.7-32.7-21.7-52.3c0-19.8,7.8-38.4,21.7-52.5c13.9-13.9,32.5-21.7,52.3-21.7l0,0c19.8,0,38.4,7.8,52.3,21.7
		l381.6,381.6L950.7,497.8C950.9,497.8,950.9,497.8,950.7,497.8z M1367.1,1016.5l-120.9-120.9l-25.3-70c-1.3-3.4-3.2-6.3-5.7-8.9
		L958.1,559.6l9.9-9.9l256.9,256.9c2.5,2.5,5.5,4.4,8.9,5.7l70,25.3l120.9,120.9L1367.1,1016.5z"/>
	<path fill="#E64C3B" d="M564.1,121.1c-9.5-9.5-25.1-9.5-34.6,0s-9.5,25.1,0,34.6l337.1,337.1c4.9,4.9,11,7.2,17.3,7.2
		s12.4-2.3,17.3-7.2c9.5-9.5,9.5-25.1,0-34.6L564.1,121.1z"/>
</g>
</svg>
