<?xml version="1.0" encoding="utf-8"?>
<!-- Generator: Adobe Illustrator 18.0.0, SVG Export Plug-In . SVG Version: 6.00 Build 0)  -->
<!DOCTYPE svg PUBLIC "-//W3C//DTD SVG 1.1//EN" "http://www.w3.org/Graphics/SVG/1.1/DTD/svg11.dtd">
<svg version="1.1" id="Capa_2" xmlns="http://www.w3.org/2000/svg" xmlns:xlink="http://www.w3.org/1999/xlink" x="0px" y="0px"
	 viewBox="0 0 1920 1080" enable-background="new 0 0 1920 1080" xml:space="preserve">
<g>
	<path fill="none" stroke="#63CBF4" stroke-width="4" stroke-miterlimit="10" d="M1302.7,968.1h-139.5c-5,0-9.2-4-9.2-9.2v-34
		c0-5-4-9.2-9.2-9.2H949.5c-5,0-9.2,4-9.2,9.2v34c0,5-4,9.2-9.2,9.2H826c-5,0-9.2,4-9.2,9.2v39.2c0,5,4,9.2,9.2,9.2h476.1
		c5,0,9.2-4,9.2-9.2v-39.2C1311.9,972.1,1307.7,968.1,1302.7,968.1z"/>
	<path fill="none" stroke="#63CBF4" stroke-width="4" stroke-miterlimit="10" d="M1537.1,49.9H541.6c-34.7,0-62.7,28.2-62.7,62.7
		c0,0,0,119.7,0,163.7c0,21.7-1.5,24.7,13,24.7c7.7,0,16.2,0,25,0c12.2,0,9.7-3,9.7-25.2c0-44,0-163.5,0-163.5
		c0-8.2,7-15.2,15.2-15.2h995.2c8.2,0,15.2,7,15.2,15.2v613.1H842.8c0,0-25,0-25,32.2c0,19.2,0,57.5,0,76.7
		c0,32.2,25.7,32.2,25.7,32.2h693.6c34.7,0,62.7-28.2,62.7-62.7V112.6C1599.8,78.1,1571.6,49.9,1537.1,49.9z M1039.2,812.9
		c-15.7,0-28.2-12.7-28.2-28.2c0-15.7,12.7-28.2,28.2-28.2c15.5,0,28.2,12.7,28.2,28.2S1055,812.9,1039.2,812.9z"/>
	<path fill="none" stroke="#63CBF4" stroke-width="4" stroke-miterlimit="10" d="M720.8,357.3H360.7c-22.2,0-40.5,18.2-40.5,40.5
		v591.8c0,22.2,18.2,40.5,40.5,40.5h360.1c22.2,0,40.5-18.2,40.5-40.5V397.8C761.3,375.5,743.1,357.3,720.8,357.3z M496.4,398.5
		h88.7c4.2,0,7.7,3.5,7.7,7.7s-3.5,7.7-7.7,7.7h-88.7c-4.2,0-7.7-3.5-7.7-7.7C488.6,402,492.1,398.5,496.4,398.5z M540.1,1001.6
		c-11.5,0-21-9.5-21-21s9.5-21,21-21c11.5,0,21,9.5,21,21S551.9,1001.6,540.1,1001.6z M726.6,940.1c0,5.5-4.2,9.7-9.5,9.7H364.7
		c-5.2,0-9.5-4.5-9.5-9.7V448.3c0-5.5,4.2-9.7,9.5-9.7h352.2c5.2,0,9.5,4.5,9.5,9.7C726.6,448.3,726.6,940.1,726.6,940.1z"/>
</g>
</svg>
