<?xml version="1.0" encoding="utf-8"?>
<!-- Generator: Adobe Illustrator 18.0.0, SVG Export Plug-In . SVG Version: 6.00 Build 0)  -->
<!DOCTYPE svg PUBLIC "-//W3C//DTD SVG 1.1//EN" "http://www.w3.org/Graphics/SVG/1.1/DTD/svg11.dtd">
<svg version="1.1" id="Capa_1" xmlns="http://www.w3.org/2000/svg" xmlns:xlink="http://www.w3.org/1999/xlink" x="0px" y="0px"
	 viewBox="0 0 512 512" enable-background="new 0 0 512 512" xml:space="preserve">
<g>
	<path fill="none" stroke="#62CAF3" stroke-width="3" stroke-miterlimit="10" d="M156,296.4c4.7,0,9.1,1.8,12.5,5.2
		c1.9,1.9,4.4,2.8,6.8,2.8c2.5,0,4.9-0.9,6.8-2.8c3.8-3.8,3.8-9.9,0-13.7c-7-7-16.3-10.8-26.1-10.8c-9.9,0-19.2,3.8-26.1,10.8
		c-3.8,3.8-3.8,9.9,0,13.7c3.8,3.8,9.9,3.8,13.7,0C146.9,298.2,151.3,296.4,156,296.4z"/>
	<path fill="none" stroke="#62CAF3" stroke-width="3" stroke-miterlimit="10" d="M329.8,287.9c-3.8,3.8-3.8,9.9,0,13.7
		c3.8,3.8,9.9,3.8,13.7,0c6.9-6.9,18.1-6.9,25,0c1.9,1.9,4.4,2.8,6.8,2.8c2.5,0,4.9-0.9,6.8-2.8c3.8-3.8,3.8-9.9,0-13.7
		C367.7,273.5,344.2,273.5,329.8,287.9z"/>
	<path fill="none" stroke="#62CAF3" stroke-width="3" stroke-miterlimit="10" d="M355.9,383.1c-55.1,55.1-144.7,55.1-199.8,0
		c-3.8-3.8-9.9-3.8-13.7,0c-3.8,3.8-3.8,9.9,0,13.7c31.3,31.3,72.4,47,113.6,47c41.1,0,82.3-15.7,113.6-47c3.8-3.8,3.8-9.9,0-13.7
		C365.8,379.3,359.7,379.3,355.9,383.1z"/>
	<path fill="none" stroke="#62CAF3" stroke-width="3" stroke-miterlimit="10" d="M483.8,306.8c0-26.2-19-48.1-43.9-52.7V92.6
		c0-21-10.4-40.4-27.9-52c-16.4-10.9-36.8-13.3-55.2-6.9l-60.6-20.6C249.7-2.6,200.6-4.2,154.5,8.5C94,25.2,59.4,60.4,54,110.6
		c-4.7,6.2-8.5,13.3-11.1,20.8l-4.7,13.9c-2.5,7.5,0.3,15.3,6.9,19.5c6.7,4.2,15,3.4,20.6-2.1c1.9-1.9,4.1-3.5,6.3-4.8v96.1
		c-24.9,4.6-43.9,26.4-43.9,52.7c0,27.3,20.5,49.8,46.9,53.1c6.6,36.6,24.1,70.4,50.7,97.4c34.8,35.3,81,54.7,130.2,54.7
		c0,0,0,0,0,0c49.1,0,95.3-19.1,130-53.9c27.1-27.1,44.7-61.2,51.2-98.3C463.5,356.4,483.8,333.9,483.8,306.8z M401.4,56.7
		c12.2,8.1,19.2,21.2,19.2,35.9v126.3c-30-4.7-53-30.6-53-61.9l-0.8-106.2C378.6,47.8,390.9,49.8,401.4,56.7z M59.4,143.1l1.9-5.6
		c4.9-14.5,15.8-26.4,29.9-32.4c14.1-6,30.2-5.8,44.1,0.7c29.2,13.6,64.6,6.3,86-17.9l2.4-2.7c3.5-4,3.2-10.1-0.8-13.6
		c-4-3.5-10.1-3.2-13.6,0.8l-2.4,2.7C191.1,93,165,98.4,143.5,88.4c-18.9-8.8-40.7-9.1-59.9-0.9c-1.7,0.7-3.4,1.6-5.1,2.5
		c11.2-29.9,38.4-51,81.1-62.8C202,15.4,247.1,16.9,290,31.5L347.5,51l0.8,49.9c-25.6,34.8-62.9,58.3-105.4,66.4
		c-43.6,8.3-88-0.5-125.1-24.7C99.6,130.8,76.7,131.3,59.4,143.1z M47.5,306.8c0-15.5,10.4-28.7,24.6-32.8v52.3
		c0,4.5,0.2,9,0.5,13.5C58.1,335.7,47.5,322.5,47.5,306.8z M372.4,444.5c-31.1,31.1-72.4,48.2-116.4,48.2c0,0,0,0,0,0
		c-44,0-85.3-17.4-116.5-49c-31.1-31.5-48.2-73.2-48.2-117.5V153.4c5.5,0.4,10.9,2.2,15.8,5.4c41.3,27,90.8,36.7,139.3,27.5
		c39.4-7.5,74.7-26.9,101.9-55.4V157c0,41.9,31.6,76.6,72.3,81.4v89.7C420.6,372,403.5,413.4,372.4,444.5z M439.5,339.7
		c0.2-3.9,0.4-7.7,0.4-11.6v-54.2c14.2,4.2,24.6,17.3,24.6,32.8C464.5,322.4,453.9,335.6,439.5,339.7z"/>
</g>
</svg>
