<?xml version="1.0" encoding="utf-8"?>
<!-- Generator: Adobe Illustrator 18.0.0, SVG Export Plug-In . SVG Version: 6.00 Build 0)  -->
<!DOCTYPE svg PUBLIC "-//W3C//DTD SVG 1.1//EN" "http://www.w3.org/Graphics/SVG/1.1/DTD/svg11.dtd">
<svg version="1.1" id="Capa_1" xmlns="http://www.w3.org/2000/svg" xmlns:xlink="http://www.w3.org/1999/xlink" x="0px" y="0px"
	 viewBox="0 0 512 512" enable-background="new 0 0 512 512" xml:space="preserve">
<g>
	<path fill="none" stroke="#62CAF3" stroke-width="3" stroke-miterlimit="10" d="M504.8,168.8l-25.5-25.5
		c-4.3-4.3-10.1-6.7-16.2-6.7c-6.1,0-11.9,2.4-16.2,6.7l-3.5,3.5c-33.7-22.5-72.8-34.3-113.9-34.4c-0.1,0-0.2,0-0.4,0
		c-25.5,0-50.2,4.5-73.4,13.3l44.7-44.7c5.7,2.7,11.9,4.1,18.3,4.1c11.3,0,22-4.4,30-12.5c8-8,12.5-18.7,12.5-30s-4.4-22-12.5-30
		c-8.1-8-18.7-12.5-30-12.5s-22,4.4-30,12.5s-12.5,18.7-12.5,30c0,6.4,1.5,12.7,4.1,18.3l-80.5,80.5l-2.7-2.7
		c-4.3-4.3-10.1-6.7-16.2-6.7s-11.9,2.4-16.2,6.7L139,164.3c-4.3,4.3-6.7,10.1-6.7,16.2s2.4,11.9,6.7,16.2l2.7,2.7l-80.5,80.5
		c-5.7-2.7-11.9-4.1-18.3-4.1c-11.3,0-22,4.4-30,12.5c-16.6,16.6-16.6,43.6,0,60c8,8,18.7,12.5,30,12.5s22-4.4,30-12.5
		c13-13,15.8-32.5,8.3-48.3l44.7-44.7c-8.8,23.3-13.4,48.2-13.3,73.8c0.1,41,12,80.2,34.4,113.9l-4.3,4.3c-8.9,8.9-8.9,23.5,0,32.4
		l25.6,25.6c4.3,4.3,10.1,6.7,16.2,6.7c6.1,0,11.9-2.4,16.2-6.7l25.6-25.6c8.9-8.9,8.9-23.5,0-32.4l-25.6-25.6
		c-4.3-4.3-10.1-6.7-16.2-6.7s-11.9,2.4-16.2,6.7l-0.7,0.7c-36.8-59.7-35.3-137,4.9-195.1c2.6,1,5.4,1.6,8.3,1.6
		c6.1,0,11.9-2.4,16.2-6.7l25.6-25.6c6.6-6.6,8.3-16.3,5.1-24.5c58.1-40.2,135.4-41.9,195.1-4.9l-1.6,1.6c-8.9,8.9-8.9,23.5,0,32.4
		l25.6,25.6c4.3,4.3,10.1,6.7,16.2,6.7s11.9-2.4,16.2-6.7l25.6-25.6C513.8,192.3,513.8,177.8,504.8,168.8z M202.4,463.6l-17.9,17.9
		l-17.9-17.9l17.9-17.9L202.4,463.6z M308.6,32.6c2.6-2.6,6.2-4.1,10-4.1s7.3,1.5,10,4.1c2.6,2.6,4.1,6.2,4.1,10
		c0,3.8-1.5,7.3-4.1,10c-2.6,2.6-6.2,4.1-10,4.1s-7.3-1.5-10-4.1l0,0l0,0c-2.6-2.6-4.1-6.2-4.1-10C304.5,38.8,306,35.4,308.6,32.6z
		 M52.9,328.3c-2.6,2.6-6.2,4.1-10,4.1c-3.8,0-7.3-1.5-10-4.1c-5.6-5.6-5.6-14.5,0-19.9c2.6-2.6,6.2-4.1,10-4.1
		c3.8,0,7.3,1.5,10,4.1C58.5,313.8,58.5,322.9,52.9,328.3z M180.7,198.4l-17.9-17.9l17.9-17.9l8.9,8.9l0,0l0,0l8.9,8.9L180.7,198.4z
		 M463,202.9L445,184.9L463,167l17.9,17.9L463,202.9z"/>
</g>
</svg>
